<svg height="512pt" viewBox="0 -96 512 512" width="512pt" xmlns="http://www.w3.org/2000/svg"><path d="m512 320h-512v-320h512zm0 0" fill="#b7e4f8"/><path d="m256 0h256v320h-256zm0 0" fill="#6fc8f1"/><path d="m512 320h-512v-43.046875l256-169.957031 256 169.957031zm0 0" fill="#6fc8f1"/><path d="m512 276.953125-256-169.957031v213.003906h256zm0 0" fill="#4bbaed"/><path d="m256 206.496094c-14.152344 0-28.300781-4.628906-40.113281-13.890625l-215.886719-169.304688v-23.300781h512v23.300781l-215.890625 169.304688c-11.804687 9.257812-25.960937 13.890625-40.109375 13.890625zm0 0" fill="#388cb3"/><path d="m256 0v206.496094c14.148438 0 28.304688-4.628906 40.109375-13.890625l215.890625-169.304688v-23.300781zm0 0" fill="#265d77"/></svg>